<?xml version="1.0" encoding="UTF-8" standalone="no"?>
<!-- Created with Inkscape (http://www.inkscape.org/) -->

<svg
   width="281.94681mm"
   height="228.15314mm"
   viewBox="0 0 281.94681 228.15314"
   version="1.1"
   id="svg1"
   inkscape:version="1.4 (e7c3feb100, 2024-10-09)"
   sodipodi:docname="v2_simulation.svg"
   xmlns:inkscape="http://www.inkscape.org/namespaces/inkscape"
   xmlns:sodipodi="http://sodipodi.sourceforge.net/DTD/sodipodi-0.dtd"
   xmlns="http://www.w3.org/2000/svg"
   xmlns:svg="http://www.w3.org/2000/svg">
  <sodipodi:namedview
     id="namedview1"
     pagecolor="#505050"
     bordercolor="#eeeeee"
     borderopacity="1"
     inkscape:showpageshadow="0"
     inkscape:pageopacity="0"
     inkscape:pagecheckerboard="0"
     inkscape:deskcolor="#505050"
     inkscape:document-units="mm"
     inkscape:zoom="0.92725428"
     inkscape:cx="412.50821"
     inkscape:cy="464.81317"
     inkscape:window-width="2556"
     inkscape:window-height="1381"
     inkscape:window-x="0"
     inkscape:window-y="0"
     inkscape:window-maximized="0"
     inkscape:current-layer="layer1"
     showgrid="false" />
  <defs
     id="defs1">
    <rect
       x="395.79218"
       y="240.49498"
       width="550.01093"
       height="40.981205"
       id="rect6" />
    <rect
       x="87.354675"
       y="208.1414"
       width="278.24084"
       height="67.942528"
       id="rect5" />
    <rect
       x="25.927765"
       y="25.927765"
       width="379.0029"
       height="45.754871"
       id="rect1" />
    <rect
       x="25.927765"
       y="25.927765"
       width="944.83826"
       height="50.33036"
       id="rect1-9" />
    <rect
       x="25.927765"
       y="25.927765"
       width="98.605164"
       height="36.048794"
       id="rect1-1" />
    <rect
       x="87.354675"
       y="208.1414"
       width="278.24084"
       height="67.942528"
       id="rect5-0" />
    <rect
       x="395.79218"
       y="240.49498"
       width="212.45522"
       height="133.72815"
       id="rect6-6" />
    <rect
       x="395.79218"
       y="240.49498"
       width="212.45522"
       height="133.72815"
       id="rect6-6-2" />
    <rect
       x="395.79218"
       y="240.49498"
       width="550.01093"
       height="40.981205"
       id="rect6-5" />
    <rect
       x="25.927765"
       y="25.927765"
       width="98.605164"
       height="36.048794"
       id="rect1-1-8" />
    <rect
       x="87.354675"
       y="208.1414"
       width="265.76645"
       height="98.139206"
       id="rect5-3" />
    <rect
       x="87.354675"
       y="208.1414"
       width="286.86847"
       height="91.668488"
       id="rect5-0-1" />
    <rect
       x="395.79218"
       y="240.49498"
       width="550.01093"
       height="40.981205"
       id="rect6-8" />
    <rect
       x="395.79218"
       y="240.49498"
       width="212.45522"
       height="133.72815"
       id="rect6-6-9" />
    <rect
       x="395.79218"
       y="240.49498"
       width="212.45522"
       height="133.72815"
       id="rect6-6-2-6" />
    <rect
       x="395.79218"
       y="240.49498"
       width="550.01093"
       height="40.981205"
       id="rect6-5-4" />
    <rect
       x="87.354675"
       y="208.1414"
       width="768.05731"
       height="76.810097"
       id="rect5-0-1-3" />
    <rect
       x="395.79218"
       y="240.49498"
       width="793.7016"
       height="94.552376"
       id="rect6-6-2-6-8" />
    <rect
       x="87.354675"
       y="208.1414"
       width="367.75244"
       height="33.432037"
       id="rect5-0-6" />
    <rect
       x="87.354675"
       y="208.1414"
       width="815.80103"
       height="71.151627"
       id="rect5-0-1-3-7" />
  </defs>
  <g
     inkscape:label="Layer 1"
     inkscape:groupmode="layer"
     id="layer1"
     transform="translate(74.271288)">
    <text
       xml:space="preserve"
       transform="matrix(0.26458333,0,0,0.26458333,-7.6992716,-5.9381388)"
       id="text1"
       style="font-style:italic;font-weight:300;font-size:32px;line-height:1;font-family:Calibri;-inkscape-font-specification:'Calibri Light Italic';text-align:start;letter-spacing:0.5px;writing-mode:lr-tb;direction:ltr;white-space:pre;shape-inside:url(#rect1);display:inline;fill:#646464;fill-opacity:1;stroke-width:2.83465;paint-order:markers stroke fill"
       x="-167.95312"
       y="0"><tspan
         x="25.927734"
         y="49.927734"
         id="tspan6"><tspan
           style="font-style:normal;font-weight:normal;font-family:'Segoe Print';-inkscape-font-specification:'Segoe Print';fill:#323232"
           id="tspan4">PEtab v1 simulation</tspan></tspan></text>
    <text
       xml:space="preserve"
       transform="matrix(0.26458333,0,0,0.26458333,-7.6992716,94.298847)"
       id="text1-8"
       style="font-style:italic;font-weight:300;font-size:32px;line-height:1;font-family:Calibri;-inkscape-font-specification:'Calibri Light Italic';text-align:start;letter-spacing:0.5px;writing-mode:lr-tb;direction:ltr;white-space:pre;shape-inside:url(#rect1-9);display:inline;fill:#646464;fill-opacity:1;stroke-width:2.83465;paint-order:markers stroke fill"
       x="-321.09375"
       y="0"><tspan
         x="25.927734"
         y="49.927734"
         id="tspan8"><tspan
           style="font-style:normal;font-weight:normal;font-family:'Segoe Print';-inkscape-font-specification:'Segoe Print';fill:#323232"
           id="tspan7">PEtab v2 simulation (an &quot;experiment&quot;)</tspan></tspan></text>
    <g
       id="g4"
       transform="translate(-7.7254948,5.3565226)">
      <path
         style="fill:#bfbfbf;stroke:#000000;stroke-width:1;stroke-dasharray:none;stroke-opacity:1;paint-order:markers stroke fill"
         d="m 7.7254948,32.878068 v 14.72894"
         id="path3"
         sodipodi:nodetypes="cc" />
      <path
         style="fill:#bfbfbf;stroke:#000000;stroke-width:1;stroke-dasharray:none;stroke-opacity:1;paint-order:markers stroke fill"
         d="m 44.243962,32.878068 v 14.72894"
         id="path3-9"
         sodipodi:nodetypes="cc" />
      <path
         style="fill:#bfbfbf;stroke:#000000;stroke-width:1;stroke-dasharray:4, 1;stroke-dashoffset:0;stroke-opacity:1;paint-order:markers stroke fill"
         d="m 143.50504,32.878068 v 14.72894"
         id="path3-9-5"
         sodipodi:nodetypes="cc" />
      <path
         style="fill:#bfbfbf;stroke:#000000;stroke-width:1;stroke-dasharray:none;stroke-opacity:1;paint-order:markers stroke fill"
         d="M 7.7254948,40.242538 H 143.50504"
         id="path4" />
      <text
         xml:space="preserve"
         transform="matrix(0.26458333,0,0,0.26458333,-93.596986,4.2643257)"
         id="text5"
         style="font-style:normal;font-variant:normal;font-weight:normal;font-stretch:normal;font-size:26.6667px;line-height:1;font-family:'Segoe Print';-inkscape-font-specification:'Segoe Print';text-align:center;letter-spacing:0.5px;writing-mode:lr-tb;direction:ltr;white-space:pre;shape-inside:url(#rect5);display:inline;fill:#646464;fill-opacity:1;stroke:#000000;stroke-width:3.77953;stroke-dasharray:none;stroke-opacity:1;paint-order:markers stroke fill"><tspan
           x="108.42596"
           y="227.68357"
           id="tspan10"><tspan
             style="stroke:none"
             id="tspan9">pre-equilibration </tspan></tspan><tspan
           x="162.18384"
           y="254.35027"
           id="tspan12"><tspan
             style="stroke:none"
             id="tspan11">condition</tspan></tspan></text>
      <text
         xml:space="preserve"
         transform="matrix(0.26458333,0,0,0.26458333,-14.741417,6.900572)"
         id="text5-0"
         style="font-style:normal;font-variant:normal;font-weight:normal;font-stretch:normal;font-size:26.6667px;line-height:1;font-family:'Segoe Print';-inkscape-font-specification:'Segoe Print';text-align:center;letter-spacing:0.5px;writing-mode:lr-tb;direction:ltr;white-space:pre;shape-inside:url(#rect5-0);display:inline;fill:#646464;fill-opacity:1;stroke:#000000;stroke-width:3.77953;stroke-dasharray:none;stroke-opacity:1;paint-order:markers stroke fill"><tspan
           x="154.75284"
           y="227.68357"
           id="tspan14"><tspan
             style="stroke:none"
             id="tspan13">simulation </tspan></tspan><tspan
           x="162.18384"
           y="254.35027"
           id="tspan16"><tspan
             style="stroke:none"
             id="tspan15">condition</tspan></tspan></text>
      <text
         xml:space="preserve"
         transform="matrix(0.26458333,0,0,0.26458333,31.060616,-36.835241)"
         id="text6"
         style="font-style:normal;font-variant:normal;font-weight:normal;font-stretch:normal;font-size:21.3333px;line-height:1;font-family:'Segoe Print';-inkscape-font-specification:'Segoe Print';text-align:start;letter-spacing:0.5px;writing-mode:lr-tb;direction:ltr;white-space:pre;shape-inside:url(#rect6);display:inline;fill:#646464;fill-opacity:1;stroke:none;stroke-width:3.77953;stroke-dasharray:none;stroke-opacity:1;paint-order:markers stroke fill"
         x="-150.22894"
         y="0"><tspan
           x="395.79297"
           y="256.12845"
           id="tspan17">time of final measurement
</tspan><tspan
           x="395.79297"
           y="277.46177"
           id="tspan18">     (∞ for steady-state)</tspan></text>
      <text
         xml:space="preserve"
         transform="matrix(0.26458333,0,0,0.26458333,-78.565102,-36.476752)"
         id="text6-1"
         style="font-style:normal;font-variant:normal;font-weight:normal;font-stretch:normal;font-size:21.3333px;line-height:1;font-family:'Segoe Print';-inkscape-font-specification:'Segoe Print';text-align:center;letter-spacing:0.5px;writing-mode:lr-tb;direction:ltr;white-space:pre;shape-inside:url(#rect6-6);display:inline;fill:#646464;fill-opacity:1;stroke:none;stroke-width:3.77953;stroke-dasharray:none;stroke-opacity:1;paint-order:markers stroke fill"><tspan
           x="444.21643"
           y="256.12845"
           id="tspan20">time=t<tspan
   style="font-size:65%;baseline-shift:sub"
   id="tspan19">0</tspan>=0</tspan></text>
      <text
         xml:space="preserve"
         transform="matrix(0.26458333,0,0,0.26458333,-116.13507,-36.096413)"
         id="text6-1-7"
         style="font-style:normal;font-variant:normal;font-weight:normal;font-stretch:normal;font-size:21.3333px;line-height:1;font-family:'Segoe Print';-inkscape-font-specification:'Segoe Print';text-align:center;letter-spacing:0.5px;writing-mode:lr-tb;direction:ltr;white-space:pre;shape-inside:url(#rect6-6-2);display:inline;fill:#646464;fill-opacity:1;stroke:none;stroke-width:3.77953;stroke-dasharray:none;stroke-opacity:1;paint-order:markers stroke fill"><tspan
           x="449.07267"
           y="256.12845"
           id="tspan21">time*=-∞</tspan></text>
      <path
         style="fill:#646464;fill-opacity:1;stroke:none;stroke-width:1;stroke-dasharray:none;stroke-opacity:1;paint-order:markers stroke fill"
         id="path6"
         d="m -8.4481272,55.586607 c 0.1717138,-0.717727 0.4037161,-1.418666 0.6505834,-2.113454 0.4067731,-1.099915 0.9107263,-2.157675 1.48048,-3.181435 0.5857364,-1.063572 1.3452411,-2.010418 2.1422709,-2.920439 0.8835147,-0.960363 1.8731722,-1.819362 2.8799139,-2.647508 0.73064013,-0.637262 1.49220153,-1.227646 2.3320754,-1.712526 0.614729,-0.340342 1.2940253,-0.543653 1.9001448,-0.899457 0.8587292,-0.630647 -0.3446891,-0.874352 -1.0854252,-1.305761 -0.5679637,7.94e-4 -1.13565691,0.02167 -1.70337553,0.03634 -0.67230862,-0.0016 -1.34178827,0.05515 -2.01027647,0.120541 -0.8069978,0.108326 -1.5328824,-0.28648 0.8119974,0.893845 0.10076485,0.05072 0.22554843,-0.0057 0.33832263,-0.0086 1.03518799,-0.01 2.07114547,-0.04457 3.10616747,-0.01415 0.2070802,0.01889 0.4784475,0.03053 0.6835417,0.0941 0.07606,0.02357 0.2855256,0.140766 0.2162937,0.101422 -1.9720962,-1.12071 -1.1347259,-0.901188 -1.0118456,-0.380495 -0.00619,0.492558 -0.2707566,0.946626 -0.4694858,1.385866 -0.3265993,0.689623 -0.5633484,1.41473 -0.7638181,2.149366 -0.09171,0.358558 -0.1704598,0.720074 -0.25731161,1.079813 0,0 1.29382401,0.69838 1.29382401,0.69838 v 0 c 0.086833,-0.358571 0.1644791,-0.719039 0.2540537,-1.076949 0.1962061,-0.727432 0.4283787,-1.445839 0.7542877,-2.127006 0.2145702,-0.46309 0.4864248,-0.932628 0.5218059,-1.450573 -0.04264,-1.026213 -1.5563814,-1.282833 -2.4033828,-1.33671 -1.03863631,-0.01548 -2.07746165,0.01696 -3.1161993,0.01363 -0.1166778,5.3e-4 -0.4206969,-0.09102 -0.3500333,0.0019 0.7174904,0.94274 0.8056394,0.930971 1.59577412,0.832861 0.66442353,-0.06737 1.3302151,-0.116036 1.99853218,-0.115395 0.5590413,-0.01294 1.130702,-0.06416 1.684248,0.02077 -0.3855672,-0.239911 -0.7738943,-0.475443 -1.1567018,-0.719736 -3.492e-4,-2.22e-4 0.1198207,0.01506 0.031813,0.127114 -0.059836,0.07619 -0.1274934,0.115411 -0.2062352,0.173154 -0.6036396,0.353076 -1.27726734,0.562893 -1.88529361,0.908799 -0.84008929,0.495834 -1.60152769,1.095647 -2.33376229,1.739661 -1.00665,0.839029 -1.9989867,1.704962 -2.8876811,2.669752 -0.8058163,0.916321 -1.5739403,1.869853 -2.1625332,2.94418 -0.5741112,1.030137 -1.0772465,2.096381 -1.498069,3.198776 -0.2527503,0.695737 -0.4893744,1.396888 -0.6861027,2.110822 z" />
      <path
         style="fill:#646464;fill-opacity:1;stroke:none;stroke-width:1;stroke-dasharray:none;stroke-opacity:1;paint-order:markers stroke fill"
         id="path7"
         d="m 31.781419,56.207524 c 0.250441,-0.509135 0.486902,-1.024708 0.738007,-1.533613 0.413139,-0.79334 0.888754,-1.551524 1.371415,-2.303788 0.582634,-0.897173 1.236493,-1.743649 1.924063,-2.561997 0.593059,-0.75003 1.247834,-1.443382 1.940201,-2.101263 0.636833,-0.658524 1.343578,-1.240223 2.054359,-1.815653 0.546537,-0.448032 1.109472,-0.880284 1.711635,-1.251333 0.80382,-0.499589 -0.07851,-0.625176 -1.107755,-1.088811 -0.02778,-0.01252 -0.549574,0.04143 -0.582305,0.04454 -0.847008,0.07968 -1.687912,0.21576 -2.520662,0.388331 -0.746524,0.201224 -1.474041,0.463714 -2.221468,0.660535 -0.595789,0.11947 -1.130906,-0.347308 1.118478,0.802783 0.04434,0.02267 0.338072,-0.197424 0.375611,-0.218842 0.42096,-0.255987 0.843412,-0.506039 1.288714,-0.717497 0.565086,-0.245015 1.17104,-0.368411 1.78236,-0.417949 0.486667,-0.02387 0.970018,-0.08241 1.418537,0.136363 -2.104512,-1.168545 -1.091155,-0.806375 -0.87761,-0.3073 0.09485,0.22166 0.104447,0.46468 0.117764,0.7009 0.0034,0.692293 -0.03085,1.383723 -0.0864,2.07354 -0.01339,0.472731 -0.130148,0.943427 -0.113689,1.41692 0.464693,0.18297 0.910709,0.423317 1.394077,0.54891 0.06647,0.01728 0.220779,-1.011415 0.233066,-1.102516 0.033,-0.267452 0.05948,-0.535602 0.08515,-0.803831 0,0 -1.310886,-0.683514 -1.310886,-0.683514 v 0 c -0.02471,0.266428 -0.0495,0.532879 -0.08257,0.798439 -0.04086,0.301773 -0.07921,0.608345 -0.164859,0.901594 -0.01503,0.05143 -0.09477,0.118832 -0.0526,0.1519 0.392583,0.307869 0.843634,0.532823 1.265454,0.799234 -0.125238,-0.01786 0.0502,-1.184341 0.04966,-1.34984 0.05797,-0.693751 0.09582,-1.388534 0.103613,-2.084861 -0.03106,-1.289431 -0.391671,-1.250326 -1.725811,-1.977911 -0.471191,-0.15987 -0.965904,-0.104543 -1.455282,-0.07413 -0.622316,0.0691 -1.239962,0.200676 -1.813272,0.459933 -0.446683,0.217959 -0.872625,0.471586 -1.301583,0.72212 -0.08985,0.05217 -0.177935,0.107378 -0.268481,0.158326 -0.03629,0.02043 -0.141089,0.02925 -0.110754,0.05778 0.958945,0.901814 0.713869,1.018635 1.3517,0.846161 0.734886,-0.218516 1.459963,-0.469548 2.203014,-0.660439 0.831757,-0.167103 1.67087,-0.302522 2.517264,-0.368591 0.109143,-0.0067 0.218117,-0.01736 0.327432,-0.02011 0.0842,-0.0021 0.317614,0.05899 0.252614,0.0054 -1.186061,-0.977275 -0.754449,-0.975077 -1.332487,-0.598164 -0.595497,0.387887 -1.1607,0.821584 -1.708372,1.274029 -0.710477,0.581279 -1.418579,1.16672 -2.059416,1.826017 -0.693737,0.663522 -1.3487,1.36335 -1.942645,2.118815 -0.69003,0.824312 -1.345901,1.67677 -1.937149,2.575459 -0.489024,0.754735 -0.964515,1.519201 -1.386425,2.313964 -0.255611,0.510408 -0.492942,1.030253 -0.76613,1.531498 z" />
      <text
         xml:space="preserve"
         transform="matrix(0.26458333,0,0,0.26458333,-83.545471,-29.083115)"
         id="text6-7"
         style="font-style:normal;font-variant:normal;font-weight:normal;font-stretch:normal;font-size:21.3333px;line-height:1;font-family:'Segoe Print';-inkscape-font-specification:'Segoe Print';text-align:center;letter-spacing:0.5px;writing-mode:lr-tb;direction:ltr;white-space:pre;shape-inside:url(#rect6-5);display:inline;fill:#646464;fill-opacity:1;stroke:none;stroke-width:3.77953;stroke-dasharray:none;stroke-opacity:1;paint-order:markers stroke fill"><tspan
           x="554.43344"
           y="256.12845"
           id="tspan22">fitted measurements</tspan></text>
      <path
         style="fill:#646464;fill-opacity:1;stroke:none;stroke-width:1;stroke-dasharray:none;stroke-opacity:1;paint-order:markers stroke fill"
         id="path8"
         d="m 59.983083,36.055372 c -0.422132,-0.01326 -0.843433,-0.03816 -1.265885,-0.03613 -0.786792,0.0037 -1.572832,0.03535 -2.359041,0.0625 -0.99636,0.03465 -1.993106,0.05537 -2.989887,0.0731 -0.85358,0.01409 -1.707205,0.0258 -2.56086,0.0345 -0.665503,-0.0031 -1.329544,0.04837 -1.994715,0.05738 -0.455562,-0.0015 -0.907208,-0.06491 -1.354671,-0.144537 -0.156319,-0.03599 -0.315503,-0.07607 -0.461899,-0.143697 -0.03753,-0.01734 -0.144249,-0.08085 -0.108334,-0.06037 1.213622,0.691896 1.540547,0.946166 1.111417,0.618848 -0.119124,-0.116621 -0.102778,-0.25321 -0.05008,-0.398111 0.121475,-0.20355 0.321749,-0.327018 0.524309,-0.438163 0.307721,-0.170086 0.644247,-0.277718 0.952725,-0.445431 0.71252,-0.542462 -0.828874,-0.910617 -1.168914,-1.09819 -0.291301,0.03969 -0.577752,0.10412 -0.861464,0.180854 -0.372187,0.09216 -0.715402,0.242103 -1.033717,0.454148 -0.244713,0.173676 -0.518282,0.333046 -0.662226,0.604653 -0.07825,0.294865 0.143664,0.503961 0.335995,0.693836 0.26616,0.237268 0.545729,0.458621 0.846698,0.649897 0.359384,0.210928 0.700056,0.451409 1.040559,0.691069 0.266885,0.197654 0.52089,0.412509 0.765365,0.637143 0.146503,0.142589 0.07335,0.07147 0.219472,0.213346 0,0 1.364226,0.561179 1.364226,0.561179 v 0 c -0.148547,-0.138729 -0.07531,-0.06758 -0.219628,-0.213545 -0.2403,-0.236202 -0.501758,-0.449575 -0.765209,-0.659313 -0.336796,-0.243753 -0.678633,-0.482557 -1.033164,-0.699811 -0.306017,-0.177678 -0.584088,-0.390761 -0.853593,-0.619896 -0.154683,-0.137187 -0.384717,-0.303498 -0.412266,-0.519602 0.117988,-0.250802 0.400143,-0.382809 0.611045,-0.544835 0.311166,-0.197627 0.649547,-0.328625 1.008475,-0.41363 0.267621,-0.06575 0.555059,-0.15304 0.831443,-0.109402 -0.407467,-0.236902 -0.822437,-0.461343 -1.222394,-0.710707 -0.02934,-0.01829 0.11104,-0.04533 0.08569,-0.0047 -0.02723,0.0436 -0.07308,0.07003 -0.112798,0.09964 -0.309006,0.165834 -0.644313,0.277718 -0.950764,0.449586 -0.231508,0.132798 -0.451953,0.280501 -0.586827,0.518631 -0.07487,0.179965 -0.114811,0.367608 -0.02344,0.550329 0.428929,0.586628 1.288502,0.887745 2.003099,1.039667 0.448813,0.07272 0.902462,0.120297 1.357818,0.112492 0.660183,-0.01869 1.319496,-0.06599 1.980213,-0.06634 0.849937,-0.01219 1.699871,-0.0247 2.549687,-0.04389 0.997614,-0.02139 1.995241,-0.04312 2.992635,-0.07331 0.793647,-0.02362 1.587413,-0.04721 2.381534,-0.03916 0.428606,0.0084 0.858546,0.02313 1.284692,0.07137 z" />
      <path
         style="fill:#646464;fill-opacity:1;stroke:none;stroke-width:1;stroke-dasharray:none;stroke-opacity:1;paint-order:markers stroke fill"
         id="path9"
         d="m 127.64956,37.204188 c 0.56032,-0.116185 1.13629,-0.145573 1.70611,-0.186059 0.82001,-0.04323 1.64189,-0.03083 2.46244,-0.01194 0.98323,0.03157 1.96636,0.06589 2.94965,0.09557 0.84075,0.03599 1.68224,0.02526 2.52341,0.0175 0.73572,-0.0082 1.47146,-0.01415 2.2072,-0.01969 0.21136,-0.03778 0.67958,0.05973 0.8707,-0.05304 0.0751,-0.04433 0.0776,-0.105497 0.099,-0.179198 -0.0355,-0.24659 -0.29346,-0.381447 -0.48583,-0.505465 -0.70551,-0.536737 -1.47255,-0.828788 -2.25841,-1.173714 -0.0641,-0.02701 -0.12872,-0.0529 -0.19235,-0.08103 -0.45437,-0.200905 -1.06717,-0.577879 0.98883,0.576181 0.016,0.009 -0.0276,-0.02791 -0.0457,-0.03045 -0.009,-0.0012 -0.0191,0.0151 -0.0139,0.02209 0.0127,0.01716 0.0366,0.0221 0.0549,0.03315 0.50801,-0.0067 1.0148,0.03868 1.5168,0.113332 0.34781,0.06387 0.69707,0.138278 0.99522,0.335645 -2.17237,-1.253933 -1.21939,-0.872958 -0.92173,-0.381834 0.0648,0.226322 -0.0354,0.460216 -0.13297,0.662192 -0.14913,0.296134 -0.36241,0.540312 -0.60381,0.763519 -0.31694,0.271775 -0.67893,0.486266 -1.03485,0.702547 -0.18396,0.110906 -0.37859,0.202266 -0.57053,0.298146 0,0 1.22375,0.80491 1.22375,0.80491 v 0 c 0.19466,-0.09817 0.3911,-0.193741 0.57665,-0.308758 0.36317,-0.223358 0.73366,-0.442174 1.05515,-0.724347 0.25357,-0.236336 0.47628,-0.496381 0.63679,-0.806331 0.12076,-0.240297 0.21387,-0.496371 0.19988,-0.769771 -0.17613,-0.622713 -1.30271,-0.972389 -1.57997,-1.172311 -0.31678,-0.155297 -0.6647,-0.222945 -1.01138,-0.276539 -0.51944,-0.06477 -1.04827,-0.122246 -1.57134,-0.08144 -0.0398,0.0242 -0.30434,0.178252 -0.14994,0.275679 0.59587,0.375997 1.10904,0.704072 1.73015,0.955414 0.56031,0.24471 2.06205,0.952735 -0.26807,-0.271392 0.18298,0.114119 0.3628,0.232207 0.53665,0.358381 0.008,0.0023 0.0216,-9.52e-4 0.0249,0.007 0.0149,0.03616 -0.0741,0.02713 -0.11293,0.03168 -0.24003,0.02813 -0.48358,0.02018 -0.72449,0.028 -0.73335,0.0073 -1.46668,0.01681 -2.20002,0.02516 -0.83743,0.0094 -1.67496,0.01613 -2.51207,-0.01613 -0.98149,-0.02673 -1.96281,-0.05882 -2.94413,-0.09102 -0.82824,-0.02358 -1.65775,-0.04563 -2.48524,0.0123 -0.58856,0.04062 -1.18042,0.07289 -1.76251,0.172929 z" />
    </g>
    <g
       id="g5"
       transform="translate(-7.8925192,-0.18321976)">
      <path
         style="fill:#bfbfbf;stroke:#000000;stroke-width:1;stroke-dasharray:none;stroke-opacity:1;paint-order:markers stroke fill"
         d="m 7.8925192,139.0275 v 14.72894"
         id="path3-3"
         sodipodi:nodetypes="cc" />
      <path
         style="fill:#bfbfbf;stroke:#000000;stroke-width:1;stroke-dasharray:none;stroke-opacity:1;paint-order:markers stroke fill"
         d="m 44.410985,139.0275 v 14.72894"
         id="path3-9-3"
         sodipodi:nodetypes="cc" />
      <path
         style="fill:#bfbfbf;stroke:#000000;stroke-width:1;stroke-dasharray:4, 1;stroke-dashoffset:0;stroke-opacity:1;paint-order:markers stroke fill"
         d="m 143.67202,139.0275 v 14.72894"
         id="path3-9-5-8"
         sodipodi:nodetypes="cc" />
      <path
         style="fill:#bfbfbf;stroke:#000000;stroke-width:1;stroke-dasharray:none;stroke-opacity:1;paint-order:markers stroke fill"
         d="M 7.8925192,146.39197 H 143.67202"
         id="path4-6" />
      <text
         xml:space="preserve"
         transform="matrix(0.26458333,0,0,0.26458333,-93.429965,110.41372)"
         id="text5-8"
         style="font-style:normal;font-variant:normal;font-weight:normal;font-stretch:normal;font-size:26.6667px;line-height:1;font-family:'Segoe Print';-inkscape-font-specification:'Segoe Print';text-align:center;letter-spacing:0.5px;writing-mode:lr-tb;direction:ltr;white-space:pre;shape-inside:url(#rect5-3);display:inline;fill:#646464;fill-opacity:1;stroke:#000000;stroke-width:3.77953;stroke-dasharray:none;stroke-opacity:1;paint-order:markers stroke fill"><tspan
           x="141.81631"
           y="227.68357"
           id="tspan24"><tspan
             style="stroke:none"
             id="tspan23">experiment
</tspan></tspan><tspan
           x="102.18866"
           y="254.35027"
           id="tspan26"><tspan
             style="stroke:none"
             id="tspan25">pre-equilibration </tspan></tspan><tspan
           x="155.94654"
           y="281.01698"
           id="tspan28"><tspan
             style="stroke:none"
             id="tspan27">condition</tspan></tspan></text>
      <text
         xml:space="preserve"
         transform="matrix(0.26458333,0,0,0.26458333,32.23539,120.51538)"
         id="text5-0-7"
         style="font-style:normal;font-variant:normal;font-weight:normal;font-stretch:normal;font-size:26.6667px;line-height:1;font-family:'Segoe Print';-inkscape-font-specification:'Segoe Print';text-align:center;letter-spacing:0.5px;writing-mode:lr-tb;direction:ltr;white-space:pre;shape-inside:url(#rect5-0-1);display:inline;fill:#646464;fill-opacity:1;stroke:#000000;stroke-width:3.77953;stroke-dasharray:none;stroke-opacity:1;paint-order:markers stroke fill"><tspan
           x="152.36709"
           y="227.68357"
           id="tspan30"><tspan
             style="stroke:none"
             id="tspan29">experiment
</tspan></tspan><tspan
           x="159.06632"
           y="254.35027"
           id="tspan32"><tspan
             style="stroke:none"
             id="tspan31">simulation </tspan></tspan><tspan
           x="160.58976"
           y="281.01698"
           id="tspan34"><tspan
             style="stroke:none"
             id="tspan33">conditions</tspan></tspan></text>
      <text
         xml:space="preserve"
         transform="matrix(0.26458333,0,0,0.26458333,31.227639,69.31409)"
         id="text6-6"
         style="font-style:normal;font-variant:normal;font-weight:normal;font-stretch:normal;font-size:21.3333px;line-height:1;font-family:'Segoe Print';-inkscape-font-specification:'Segoe Print';text-align:start;letter-spacing:0.5px;writing-mode:lr-tb;direction:ltr;white-space:pre;shape-inside:url(#rect6-8);display:inline;fill:#646464;fill-opacity:1;stroke:none;stroke-width:3.77953;stroke-dasharray:none;stroke-opacity:1;paint-order:markers stroke fill"
         x="-150.22894"
         y="0"><tspan
           x="395.79297"
           y="256.12845"
           id="tspan35">time of final measurement
</tspan><tspan
           x="395.79297"
           y="277.46177"
           id="tspan36">     (∞ for steady-state)</tspan></text>
      <text
         xml:space="preserve"
         transform="matrix(0.26458333,0,0,0.26458333,-82.631419,69.672579)"
         id="text6-1-4"
         style="font-style:normal;font-variant:normal;font-weight:normal;font-stretch:normal;font-size:21.3333px;line-height:1;font-family:'Segoe Print';-inkscape-font-specification:'Segoe Print';text-align:center;letter-spacing:0.5px;writing-mode:lr-tb;direction:ltr;white-space:pre;shape-inside:url(#rect6-6-9);display:inline;fill:#646464;fill-opacity:1;stroke:none;stroke-width:3.77953;stroke-dasharray:none;stroke-opacity:1;paint-order:markers stroke fill"><tspan
           x="459.18516"
           y="256.12845"
           id="tspan38">time=t<tspan
   style="font-size:65%;baseline-shift:sub"
   id="tspan37">0</tspan></tspan></text>
      <text
         xml:space="preserve"
         transform="matrix(0.26458333,0,0,0.26458333,-116.49726,70.052918)"
         id="text6-1-7-3"
         style="font-style:normal;font-variant:normal;font-weight:normal;font-stretch:normal;font-size:21.3333px;line-height:1;font-family:'Segoe Print';-inkscape-font-specification:'Segoe Print';text-align:center;letter-spacing:0.5px;writing-mode:lr-tb;direction:ltr;white-space:pre;shape-inside:url(#rect6-6-2-6);display:inline;fill:#646464;fill-opacity:1;stroke:none;stroke-width:3.77953;stroke-dasharray:none;stroke-opacity:1;paint-order:markers stroke fill"><tspan
           x="449.07267"
           y="256.12845"
           id="tspan39">time*=-∞</tspan></text>
      <path
         style="fill:#646464;fill-opacity:1;stroke:none;stroke-width:1;stroke-dasharray:none;stroke-opacity:1;paint-order:markers stroke fill"
         id="path6-0"
         d="m -8.2810997,161.73604 c 0.171714,-0.71773 0.403716,-1.41867 0.650583,-2.11345 0.406773,-1.09992 0.9107271,-2.15768 1.4804801,-3.18144 0.585737,-1.06357 1.3452409,-2.01042 2.142271,-2.92044 0.8835149,-0.96036 1.8731719,-1.81936 2.879914,-2.64751 0.73063969,-0.63726 1.49220136,-1.22764 2.3320747,-1.71252 0.6147287,-0.34034 1.2940264,-0.54366 1.9001451,-0.89946 0.8587284,-0.63065 -0.344689,-0.87435 -1.0854254,-1.30576 -0.5679637,7.9e-4 -1.13565637,0.0217 -1.70337604,0.0363 -0.67230767,-0.002 -1.34178746,0.0551 -2.01027536,0.12054 -0.806998,0.10833 -1.5328821,-0.28648 0.81199697,0.89385 0.100765,0.0507 0.225549,-0.006 0.3383227,-0.009 1.03518836,-0.01 2.07114603,-0.0446 3.10616843,-0.0142 0.2070797,0.0189 0.4784467,0.0305 0.6835404,0.0941 0.07606,0.0236 0.285526,0.14076 0.216294,0.10142 -1.9720958,-1.12071 -1.1347254,-0.90119 -1.0118454,-0.3805 -0.0062,0.49256 -0.270756,0.94663 -0.4694857,1.38587 -0.3266,0.68962 -0.5633487,1.41473 -0.7638187,2.14936 -0.09171,0.35856 -0.170459,0.72008 -0.25731067,1.07982 0,0 1.29382407,0.69838 1.29382407,0.69838 v 0 c 0.08683,-0.35857 0.164479,-0.71904 0.254054,-1.07695 0.1962057,-0.72743 0.4283777,-1.44584 0.7542864,-2.12701 0.21457,-0.46309 0.4864247,-0.93263 0.5218057,-1.45057 -0.04264,-1.02621 -1.5563801,-1.28283 -2.4033825,-1.33671 -1.03863634,-0.0155 -2.07746073,0.017 -3.1161987,0.0136 -0.116678,5.3e-4 -0.4206971,-0.091 -0.3500331,0.002 0.7174901,0.94274 0.8056391,0.93097 1.59577377,0.83286 0.66442269,-0.0674 1.33021536,-0.11604 1.99853203,-0.11539 0.5590414,-0.0129 1.1307021,-0.0642 1.6842478,0.0208 -0.3855667,-0.23992 -0.7738934,-0.47545 -1.1567021,-0.71974 -3.49e-4,-2.2e-4 0.1198217,0.0151 0.03181,0.12711 -0.05984,0.0762 -0.1274927,0.11541 -0.2062347,0.17316 -0.6036397,0.35307 -1.27726737,0.56289 -1.88529404,0.9088 -0.84008869,0.49583 -1.60152676,1.09564 -2.33376166,1.73966 -1.00665,0.83903 -1.998987,1.70496 -2.8876811,2.66975 -0.8058159,0.91632 -1.5739399,1.86985 -2.1625331,2.94418 -0.574111,1.03014 -1.077247,2.09638 -1.498069,3.19878 -0.25275,0.69573 -0.489375,1.39688 -0.6861025,2.11082 z" />
      <text
         xml:space="preserve"
         transform="matrix(0.26458333,0,0,0.26458333,-83.378445,77.066216)"
         id="text6-7-0"
         style="font-style:normal;font-variant:normal;font-weight:normal;font-stretch:normal;font-size:21.3333px;line-height:1;font-family:'Segoe Print';-inkscape-font-specification:'Segoe Print';text-align:center;letter-spacing:0.5px;writing-mode:lr-tb;direction:ltr;white-space:pre;shape-inside:url(#rect6-5-4);display:inline;fill:#646464;fill-opacity:1;stroke:none;stroke-width:3.77953;stroke-dasharray:none;stroke-opacity:1;paint-order:markers stroke fill"><tspan
           x="554.43344"
           y="256.12845"
           id="tspan40">fitted measurements</tspan></text>
      <path
         style="fill:#646464;fill-opacity:1;stroke:none;stroke-width:1;stroke-dasharray:none;stroke-opacity:1;paint-order:markers stroke fill"
         id="path8-9"
         d="m 60.150106,142.20481 c -0.422132,-0.0133 -0.843433,-0.0382 -1.265885,-0.0361 -0.786792,0.004 -1.572832,0.0354 -2.359041,0.0625 -0.99636,0.0347 -1.993106,0.0554 -2.989887,0.0731 -0.85358,0.0141 -1.707205,0.0258 -2.56086,0.0345 -0.665503,-0.003 -1.329544,0.0484 -1.994715,0.0574 -0.455562,-0.002 -0.907208,-0.0649 -1.354671,-0.14454 -0.156319,-0.036 -0.315503,-0.0761 -0.461899,-0.1437 -0.03753,-0.0173 -0.144249,-0.0808 -0.108334,-0.0604 1.213622,0.6919 1.540547,0.94617 1.111417,0.61885 -0.119124,-0.11662 -0.102778,-0.25321 -0.05008,-0.39811 0.121475,-0.20355 0.321749,-0.32702 0.524309,-0.43817 0.307721,-0.17008 0.644247,-0.27771 0.952725,-0.44543 0.71252,-0.54246 -0.828874,-0.91061 -1.168914,-1.09819 -0.291301,0.0397 -0.577752,0.10412 -0.861464,0.18086 -0.372187,0.0922 -0.715402,0.2421 -1.033717,0.45415 -0.244713,0.17367 -0.518282,0.33304 -0.662226,0.60465 -0.07825,0.29486 0.143664,0.50396 0.335995,0.69383 0.26616,0.23727 0.545729,0.45863 0.846698,0.6499 0.359384,0.21093 0.700056,0.45141 1.040559,0.69107 0.266885,0.19766 0.52089,0.41251 0.765365,0.63714 0.146503,0.14259 0.07335,0.0715 0.219472,0.21335 0,0 1.364226,0.56118 1.364226,0.56118 v 0 c -0.148547,-0.13873 -0.07531,-0.0676 -0.219628,-0.21355 -0.2403,-0.2362 -0.501758,-0.44957 -0.765209,-0.65931 -0.336796,-0.24375 -0.678633,-0.48256 -1.033164,-0.69981 -0.306017,-0.17768 -0.584088,-0.39076 -0.853593,-0.6199 -0.154683,-0.13718 -0.384717,-0.30349 -0.412266,-0.5196 0.117988,-0.2508 0.400143,-0.38281 0.611045,-0.54483 0.311166,-0.19763 0.649547,-0.32863 1.008475,-0.41363 0.267621,-0.0657 0.555059,-0.15304 0.831443,-0.10941 -0.407467,-0.2369 -0.822437,-0.46134 -1.222394,-0.7107 -0.02934,-0.0183 0.11104,-0.0453 0.08569,-0.005 -0.02723,0.0436 -0.07308,0.07 -0.112798,0.0996 -0.309006,0.16583 -0.644313,0.27772 -0.950764,0.44958 -0.231508,0.1328 -0.451953,0.2805 -0.586827,0.51863 -0.07487,0.17997 -0.114811,0.36761 -0.02344,0.55033 0.428929,0.58663 1.288502,0.88775 2.003099,1.03967 0.448813,0.0727 0.902462,0.1203 1.357818,0.11249 0.660183,-0.0187 1.319496,-0.066 1.980213,-0.0663 0.849937,-0.0122 1.699871,-0.0247 2.549687,-0.0439 0.997614,-0.0214 1.995241,-0.0431 2.992635,-0.0733 0.793647,-0.0236 1.587413,-0.0472 2.381534,-0.0392 0.428606,0.008 0.858546,0.0231 1.284692,0.0714 z" />
      <path
         style="fill:#646464;fill-opacity:1;stroke:none;stroke-width:1;stroke-dasharray:none;stroke-opacity:1;paint-order:markers stroke fill"
         id="path9-2"
         d="m 127.81654,143.35362 c 0.56032,-0.11618 1.13629,-0.14557 1.70611,-0.18606 0.82001,-0.0432 1.64189,-0.0308 2.46244,-0.0119 0.98323,0.0316 1.96636,0.0659 2.94965,0.0956 0.84075,0.036 1.68224,0.0253 2.52341,0.0175 0.73572,-0.008 1.47146,-0.0142 2.2072,-0.0197 0.21136,-0.0378 0.67958,0.0597 0.8707,-0.053 0.0751,-0.0443 0.0776,-0.1055 0.099,-0.1792 -0.0355,-0.24659 -0.29346,-0.38144 -0.48583,-0.50546 -0.70551,-0.53674 -1.47255,-0.82879 -2.25841,-1.17371 -0.0641,-0.027 -0.12872,-0.0529 -0.19235,-0.081 -0.45437,-0.20091 -1.06717,-0.57788 0.98883,0.57618 0.016,0.009 -0.0276,-0.0279 -0.0457,-0.0305 -0.009,-0.001 -0.0191,0.0151 -0.0139,0.0221 0.0127,0.0172 0.0366,0.0221 0.0549,0.0331 0.50801,-0.007 1.0148,0.0387 1.5168,0.11333 0.34781,0.0639 0.69707,0.13828 0.99522,0.33564 -2.17237,-1.25393 -1.21939,-0.87296 -0.92173,-0.38183 0.0648,0.22632 -0.0354,0.46021 -0.13297,0.66219 -0.14913,0.29613 -0.36241,0.54031 -0.60381,0.76352 -0.31694,0.27178 -0.67893,0.48627 -1.03485,0.70255 -0.18396,0.1109 -0.37859,0.20226 -0.57053,0.29814 0,0 1.22375,0.80491 1.22375,0.80491 v 0 c 0.19466,-0.0982 0.3911,-0.19374 0.57665,-0.30876 0.36317,-0.22335 0.73366,-0.44217 1.05515,-0.72434 0.25357,-0.23634 0.47628,-0.49638 0.63679,-0.80633 0.12076,-0.2403 0.21387,-0.49637 0.19988,-0.76977 -0.17613,-0.62272 -1.30271,-0.97239 -1.57997,-1.17232 -0.31678,-0.15529 -0.6647,-0.22294 -1.01138,-0.27653 -0.51944,-0.0648 -1.04827,-0.12225 -1.57134,-0.0814 -0.0398,0.0242 -0.30434,0.17825 -0.14994,0.27567 0.59587,0.376 1.10904,0.70408 1.73015,0.95542 0.56031,0.24471 2.06205,0.95273 -0.26807,-0.27139 0.18298,0.11412 0.3628,0.2322 0.53665,0.35838 0.008,0.002 0.0216,-9.5e-4 0.0249,0.007 0.0149,0.0362 -0.0741,0.0271 -0.11293,0.0317 -0.24003,0.0281 -0.48358,0.0202 -0.72449,0.028 -0.73335,0.007 -1.46668,0.0168 -2.20002,0.0252 -0.83743,0.009 -1.67496,0.0161 -2.51207,-0.0161 -0.98149,-0.0267 -1.96281,-0.0588 -2.94413,-0.091 -0.82824,-0.0236 -1.65775,-0.0456 -2.48524,0.0123 -0.58856,0.0406 -1.18042,0.0729 -1.76251,0.17293 z" />
      <path
         style="fill:#bfbfbf;stroke:#000000;stroke-width:1;stroke-dasharray:none;stroke-opacity:1;paint-order:markers stroke fill"
         d="m 62.402663,146.39197 v 7.36447"
         id="path3-9-3-2"
         sodipodi:nodetypes="cc" />
      <path
         style="fill:#bfbfbf;stroke:#000000;stroke-width:1;stroke-dasharray:none;stroke-opacity:1;paint-order:markers stroke fill"
         d="m 92.800988,146.39197 v 7.36447"
         id="path3-9-3-2-5"
         sodipodi:nodetypes="cc" />
      <path
         style="fill:#bfbfbf;stroke:#000000;stroke-width:1;stroke-dasharray:none;stroke-opacity:1;paint-order:markers stroke fill"
         d="m 102.72097,146.39197 v 7.36447"
         id="path3-9-3-2-5-2"
         sodipodi:nodetypes="cc" />
      <path
         style="fill:#646464;fill-opacity:1;stroke:none;stroke-width:1;stroke-dasharray:4, 1;stroke-dashoffset:0;stroke-opacity:1;paint-order:markers stroke fill"
         id="path16"
         d="m 89.127437,172.69718 c -0.292108,-0.38927 -0.538585,-0.80844 -0.778719,-1.23088 -0.520591,-0.91917 -0.905896,-1.90367 -1.272553,-2.89156 -0.449905,-1.24475 -0.793977,-2.52387 -1.095703,-3.81147 -0.277982,-1.14173 -0.368443,-2.31034 -0.37393,-3.4815 -0.01222,-0.92104 0.157003,-1.81851 0.439782,-2.69057 0.279911,-0.7978 0.722646,-1.51547 1.219989,-2.19331 0.416576,-0.56721 0.869098,-1.08741 1.394984,-1.5546 0.477165,-0.39456 0.988253,-0.74459 1.488947,-1.10779 0.120584,-0.11854 0.431343,-0.26805 0.501759,-0.42845 0.01265,-0.0288 0.01426,-0.0614 0.02141,-0.092 -0.303784,-0.76086 -1.356376,-0.85593 -2.073664,-0.92492 -0.391195,-0.0347 -0.783521,-0.0548 -1.175753,-0.0735 -0.369043,-0.0204 -0.738172,-0.0238 -1.107615,-0.0194 -0.64649,0.0164 -0.45068,-0.10944 1.086118,0.86456 0.0092,0.006 0.321087,-0.0175 0.341942,-0.0184 0.353687,-0.0118 0.708342,-10e-4 1.06063,0.0318 0.228052,0.0314 0.463714,0.0368 0.68794,0.0937 0.382064,0.097 1.683171,0.90501 -1.009425,-0.58743 0.347123,0.29739 0.43525,0.78252 0.540803,1.20654 0.120425,0.51308 0.196004,1.03496 0.260088,1.55759 0.0093,0.0857 0.0185,0.17132 0.02775,0.25698 0,0 1.290074,0.63978 1.290074,0.63978 v 0 c -0.0095,-0.0863 -0.01897,-0.17264 -0.02845,-0.25896 -0.06119,-0.52773 -0.136091,-1.05409 -0.252426,-1.5729 -0.104952,-0.445 -0.192892,-0.92205 -0.472541,-1.29506 -0.462229,-0.2652 -0.918016,-0.54196 -1.386686,-0.79561 -0.04207,-0.0228 -0.09311,-0.0221 -0.140168,-0.0307 -0.22678,-0.0413 -0.457859,-0.0547 -0.68674,-0.0787 -0.359746,-0.0261 -0.720727,-0.0375 -1.081373,-0.0253 -0.05434,0.002 -0.207473,0.006 -0.265983,0.008 -0.03217,0.001 -0.121325,-0.0162 -0.09649,0.004 1.105339,0.91154 0.696727,0.89306 1.31382,0.85968 0.364019,-0.0107 0.727736,-5.3e-4 1.091316,0.02 0.391729,0.0195 0.783622,0.0404 1.173721,0.0824 0.170479,0.0199 0.342757,0.037 0.510863,0.0729 0.04709,0.0101 0.180594,0.0618 0.139869,0.0361 -1.136563,-0.71695 -1.60964,-0.56466 -1.085265,-0.7093 0.01175,-0.001 0.03216,-0.015 0.03527,-0.004 0.01143,0.0419 -0.398552,0.37185 -0.444068,0.40623 -0.487797,0.38122 -0.992429,0.74074 -1.472211,1.13217 -0.212085,0.18916 -0.309832,0.26816 -0.504761,0.47437 -0.327332,0.34627 -0.602883,0.73781 -0.894456,1.11336 -0.497975,0.69468 -0.949727,1.42407 -1.236842,2.23427 -0.289627,0.88783 -0.456626,1.80333 -0.439846,2.74124 0.01394,1.18367 0.104743,2.36539 0.383204,3.51996 0.303723,1.29032 0.654129,2.56979 1.084796,3.8241 0.351637,0.98278 0.718421,1.96453 1.210758,2.88729 0.222773,0.41119 0.444934,0.82359 0.706572,1.21186 z" />
      <path
         style="fill:#646464;fill-opacity:1;stroke:none;stroke-width:1;stroke-dasharray:4, 1;stroke-dashoffset:0;stroke-opacity:1;paint-order:markers stroke fill"
         id="path17"
         d="m 95.589361,173.31786 c -0.118541,-0.32726 -0.224488,-0.65814 -0.318378,-0.99327 -0.212413,-0.75288 -0.310359,-1.53001 -0.400624,-2.30497 -0.111255,-0.99588 -0.129675,-1.99746 -0.114107,-2.99831 0.02138,-0.94738 0.10464,-1.89124 0.247737,-2.82762 0.145119,-0.87513 0.339762,-1.74108 0.570542,-2.59734 0.207902,-0.7797 0.484159,-1.53838 0.792602,-2.28324 0.329377,-0.75326 0.706147,-1.48533 1.112594,-2.19966 0.337624,-0.59132 0.719453,-1.15452 1.129766,-1.6973 0.365781,-0.46243 0.770006,-0.89177 1.178512,-1.31615 0.289435,-0.30331 0.603905,-0.57977 0.924285,-0.84947 0.13172,-0.13613 0.41034,-0.24288 0.43922,-0.45655 0.004,-0.0327 -0.004,-0.0659 -0.006,-0.0988 -0.38088,-0.54867 -1.0869,-0.84817 -1.741809,-0.94337 -0.27482,-0.044 -0.551842,0.01 -0.822918,0.0549 -0.331105,0.0347 -0.648964,0.13494 -0.974714,0.19665 -0.03759,0.0513 -0.164642,-0.009 -0.20868,0.0282 -0.392419,0.32738 0.818171,0.9086 1.344901,0.84527 0.170519,-0.0146 0.338357,-0.0477 0.508151,-0.069 0.228846,-0.0325 0.460253,-0.0249 0.69066,-0.0229 0.133129,0.0128 0.281699,0.0207 0.402699,0.0859 0.028,0.0151 0.10499,0.0718 0.0772,0.0563 -0.39461,-0.22051 -0.785463,-0.44768 -1.178192,-0.67152 0.24729,0.2064 0.321339,0.53038 0.397687,0.82892 0.104288,0.45421 0.154017,0.91822 0.199245,1.38128 0.02635,0.27885 0.0467,0.5582 0.06694,0.83755 0,0 1.30233,0.65079 1.30233,0.65079 v 0 c -0.0238,-0.28187 -0.0487,-0.56365 -0.0758,-0.84522 -0.0464,-0.46655 -0.0901,-0.93465 -0.18318,-1.39475 -0.0678,-0.31626 -0.13527,-0.64807 -0.33765,-0.90932 -0.696707,-0.41648 -1.114775,-0.88464 -1.861985,-0.88591 -0.235799,-1.9e-4 -0.47189,0.002 -0.705752,0.0362 -0.170847,0.0225 -0.341149,0.0489 -0.512964,0.0634 -0.552643,0.0622 0.02056,-0.0174 1.130015,0.80913 0.01982,0.0148 -0.03787,0.0361 -0.04308,0.0603 -0.0021,0.0101 0.184119,-0.048 0.197448,-0.0449 0.316098,-0.0795 0.631055,-0.16274 0.956456,-0.19673 0.269352,-0.0345 0.541372,-0.0662 0.809812,-0.006 0.0712,0.0154 0.12411,0.0239 0.19228,0.0496 0.0272,0.0102 0.10431,0.0514 0.0792,0.0366 -2.037846,-1.20045 -1.539516,-0.8148 -1.063372,-0.64148 0.01688,0.003 0.03699,-0.002 0.05066,0.009 0.03436,0.0259 -0.0361,0.097 -0.03623,0.0971 -0.09779,0.10881 -0.224441,0.1886 -0.330777,0.28794 -0.317503,0.27781 -0.629933,0.56126 -0.916419,0.87164 -0.405762,0.43285 -0.804325,0.87288 -1.171916,1.33904 -0.413229,0.54846 -0.798293,1.11699 -1.129554,1.71943 -0.402095,0.723 -0.775885,1.46211 -1.112517,2.21796 -0.321398,0.74649 -0.594884,1.51365 -0.803217,2.29978 -0.226484,0.86341 -0.420989,1.73553 -0.566232,2.61652 -0.147519,0.94292 -0.233956,1.89298 -0.250225,2.84782 -0.01659,1.00406 0.0016,2.00883 0.0967,3.00924 0.08171,0.7727 0.164989,1.54865 0.352372,2.30434 0.07976,0.32862 0.168585,0.65394 0.270634,0.97635 z" />
      <path
         style="fill:#646464;fill-opacity:1;stroke:none;stroke-width:1;stroke-dasharray:4, 1;stroke-dashoffset:0;stroke-opacity:1;paint-order:markers stroke fill"
         id="path18"
         d="m 81.370174,174.65069 c -0.05743,-0.29941 -0.137919,-0.59405 -0.22081,-0.88727 -0.207836,-0.77714 -0.437036,-1.54767 -0.674183,-2.31635 -0.410133,-1.32008 -0.841713,-2.63347 -1.298601,-3.9381 -0.452104,-1.26667 -1.001122,-2.49655 -1.598253,-3.70077 -0.619426,-1.1923 -1.346618,-2.3228 -2.109501,-3.4271 -0.632437,-0.93743 -1.357524,-1.79959 -2.151237,-2.60289 -0.780648,-0.75008 -1.608495,-1.45115 -2.457249,-2.12277 -0.678426,-0.52127 -1.402157,-0.97932 -2.137733,-1.41467 -1.000779,-0.66618 -2.071717,-1.17152 -3.174439,-1.63008 -0.474663,-0.20584 -1.491144,-0.76965 0.599342,0.38178 0.04892,0.0269 -0.09332,-0.0615 -0.13775,-0.0954 -0.09722,-0.074 -0.116028,-0.0993 -0.197623,-0.18339 -0.130839,-0.17408 -0.17744,-0.29363 -0.0061,-0.45324 0.405241,-0.2513 0.884449,-0.35705 1.342107,-0.47266 0.588042,-0.15392 1.193011,-0.20754 1.796986,-0.25265 0.303279,-0.005 0.701273,-0.10577 0.962983,0.10299 -0.41356,-0.24532 -0.83485,-0.47805 -1.240679,-0.73595 -0.01315,-0.008 0.02328,-0.0354 0.01132,-0.0453 -0.01476,-0.0123 -0.03828,0.004 -0.05722,0.007 -0.192691,0.0331 -0.383019,0.0754 -0.576077,0.10791 -0.812782,0.12973 -1.629566,0.23347 -2.445557,0.34088 -0.434409,0.0634 -0.883158,0.0942 -1.289881,0.27143 -0.144946,0.0683 -0.234161,0.18493 -0.291396,0.33037 -0.06924,0.27998 -0.08028,0.57125 -0.10201,0.85793 -0.03949,0.37578 -0.0054,0.75128 0.04462,1.12399 0.05793,0.38978 0.12701,0.77799 0.206859,1.16387 0.03095,0.15108 0.06232,0.30197 0.09654,0.45234 0,0 1.322988,0.63423 1.322988,0.63423 v 0 c -0.03989,-0.14951 -0.07437,-0.30001 -0.105423,-0.45164 -0.08529,-0.38327 -0.161007,-0.76871 -0.217755,-1.15736 -0.05233,-0.36167 -0.087,-0.72684 -0.05035,-1.09216 0.01971,-0.27071 0.03448,-0.54495 0.100531,-0.80914 0.04234,-0.11082 0.113784,-0.18621 0.223795,-0.23494 0.384215,-0.16776 0.80694,-0.2067 1.216848,-0.2737 0.818922,-0.12051 1.638805,-0.23428 2.460866,-0.33144 0.199829,-0.0255 0.443269,-0.0339 0.63591,-0.10943 7.94e-4,-2.7e-4 0.241599,-0.11833 0.173805,-0.1702 -0.399384,-0.30552 -0.850292,-0.53704 -1.275435,-0.80556 -0.318958,-0.085 -0.648081,-0.0358 -0.972185,-0.01 -0.608293,0.0535 -1.217125,0.11838 -1.809565,0.27348 -0.483867,0.12541 -0.997206,0.23271 -1.41678,0.51619 -0.21019,0.21834 -0.233397,0.38065 -0.09458,0.65188 0.555014,0.67555 1.430142,0.99624 2.212427,1.35156 0.425043,0.17514 0.848167,0.35275 1.258065,0.56167 0.114212,0.0582 0.448831,0.24749 0.339849,0.18 -0.281268,-0.17421 -0.571439,-0.3336 -0.85716,-0.5004 0.742355,0.43102 1.470409,0.88892 2.158746,1.40277 0.861282,0.66753 1.698186,1.36935 2.490393,2.11781 0.796161,0.79661 1.519844,1.65569 2.162371,2.58205 0.773853,1.09791 1.51588,2.22094 2.133444,3.4159 0.598493,1.19934 1.145799,2.42554 1.604658,3.6856 0.460542,1.2974 0.899679,2.60298 1.286023,3.92461 0.214413,0.75355 0.407668,1.51249 0.59082,2.27422 0.07709,0.28054 0.155326,0.56285 0.196342,0.85127 z" />
      <path
         style="fill:#646464;fill-opacity:1;stroke:none;stroke-width:1;stroke-dasharray:4, 1;stroke-dashoffset:0;stroke-opacity:1;paint-order:markers stroke fill"
         id="path19"
         d="m 72.48712,175.63817 c -0.115972,-0.35166 -0.299448,-0.67399 -0.479486,-0.99561 -0.389843,-0.69031 -0.779669,-1.38051 -1.174792,-2.06782 -0.606298,-1.07515 -1.230014,-2.14017 -1.882982,-3.18763 -0.774478,-1.21982 -1.578776,-2.42069 -2.391537,-3.61527 -0.696746,-1.04464 -1.433237,-2.06076 -2.229461,-3.03167 -0.825362,-0.96873 -1.811441,-1.78237 -2.782633,-2.59867 -0.815936,-0.69645 -1.647958,-1.37092 -2.52085,-1.99459 -1.150146,-0.81159 -2.383986,-1.49382 -3.601675,-2.19602 -0.692965,-0.39312 -1.384591,-0.78865 -2.092441,-1.15453 -0.643208,-0.32514 -1.295046,-0.63252 -1.956837,-0.91781 -0.597998,-0.25615 -1.208389,-0.4815 -1.820725,-0.70052 -0.499523,-0.1661 -0.999017,-0.34103 -1.521209,-0.41859 -0.25727,-0.009 -0.566086,0.007 -0.763926,0.20071 -0.03814,0.0373 -0.06562,0.0841 -0.09842,0.12621 -0.192461,0.332 -0.231772,0.71777 -0.259723,1.09307 -0.02886,0.43343 -0.005,0.86802 0.02804,1.30044 0.02905,0.32978 0.06274,0.65912 0.09193,0.98889 0.01834,0.53703 -0.0089,0.13623 1.345607,0.67429 0.02511,0.01 0.03884,-0.43317 0.04003,-0.46271 0.01188,-0.36241 0.01802,-0.72496 0.02265,-1.08752 0.0099,-0.36844 0.01053,-0.73667 -7.93e-4,-1.10504 -0.01376,-0.26007 -0.02659,-0.51788 0.03762,-0.77193 0.109421,-0.34188 0.480401,-0.41808 0.786201,-0.51134 0.54202,-0.14508 1.097058,-0.23647 1.654001,-0.30017 0.519811,-0.0507 1.040913,-0.0527 1.562105,-0.0323 0.450194,0.0247 0.901388,0.0319 1.351031,0.0656 0,0 -1.170792,-0.86197 -1.170792,-0.86197 v 0 c -0.448,-0.023 -0.896493,-0.0361 -1.344657,-0.0555 -0.523476,-0.014 -1.047115,-0.004 -1.568064,0.055 -0.563732,0.0711 -1.125701,0.16722 -1.674198,0.31764 -0.360374,0.11274 -0.758101,0.22521 -0.890321,0.62084 -0.07296,0.26881 -0.07424,0.53842 -0.04789,0.81517 0.01582,0.36721 0.0236,0.73421 0.01132,1.10175 -0.0072,0.35907 -0.01389,0.71826 -0.03228,1.07697 -0.05216,0.85081 -0.191453,0.34175 1.271979,1.13591 0.01032,0.006 -0.01656,-0.0166 -0.02487,-0.0249 -0.07878,-0.32358 -0.07604,-0.66272 -0.123566,-0.99131 -0.03839,-0.42509 -0.05918,-0.85269 -0.03621,-1.27934 0.02397,-0.34335 0.05322,-0.70263 0.229462,-1.00646 0.206034,-0.23012 0.469808,-0.24174 0.763723,-0.20981 0.508521,0.0929 0.999611,0.25689 1.487461,0.42542 0.608753,0.21821 1.214546,0.44562 1.808194,0.70256 0.657,0.28711 1.305385,0.59384 1.943785,0.92032 0.70026,0.36859 1.388772,0.75858 2.076945,1.14916 -0.267602,-0.15529 -0.534834,-0.31122 -0.802812,-0.46587 -0.134186,-0.0774 0.268367,0.1549 0.401434,0.23424 0.554408,0.33057 1.100775,0.67521 1.632024,1.04195 0.883195,0.62311 1.726514,1.29617 2.55112,1.99498 0.969431,0.80779 1.95285,1.61363 2.780726,2.5709 0.80877,0.97064 1.559377,1.98663 2.266085,3.03402 0.814612,1.18763 1.611638,2.38804 2.382242,3.60468 0.641564,1.04153 1.265576,2.09379 1.851332,3.16793 0.380418,0.67725 0.748736,1.36053 1.120777,2.04236 0.169273,0.30545 0.349134,0.61042 0.449837,0.94703 z" />
    </g>
    <text
       xml:space="preserve"
       transform="matrix(0.26458333,0,0,0.26458333,-23.212709,57.800607)"
       id="text5-0-7-8"
       style="font-style:normal;font-variant:normal;font-weight:normal;font-stretch:normal;font-size:26.6667px;line-height:1;font-family:'Segoe Print';-inkscape-font-specification:'Segoe Print';text-align:start;letter-spacing:0.5px;writing-mode:lr-tb;direction:ltr;white-space:pre;shape-inside:url(#rect5-0-1-3);display:inline;fill:#646464;fill-opacity:1;stroke:#000000;stroke-width:3.77953;stroke-dasharray:none;stroke-opacity:1;paint-order:markers stroke fill"
       x="-358.30511"
       y="0"><tspan
         x="87.355469"
         y="227.68357"
         id="tspan42"><tspan
           style="fill:#4b4b4b;stroke:none"
           id="tspan41">The new &quot;experiment&quot; is a timecourse of multiple
</tspan></tspan><tspan
         x="87.355469"
         y="254.35027"
         id="tspan44"><tspan
           style="fill:#4b4b4b;stroke:none"
           id="tspan43">simulation conditions</tspan></tspan></text>
    <text
       xml:space="preserve"
       transform="matrix(0.26458333,0,0,0.26458333,-23.07835,-42.899346)"
       id="text5-0-7-8-4"
       style="font-style:normal;font-variant:normal;font-weight:normal;font-stretch:normal;font-size:26.6667px;line-height:1;font-family:'Segoe Print';-inkscape-font-specification:'Segoe Print';text-align:start;letter-spacing:0.5px;writing-mode:lr-tb;direction:ltr;white-space:pre;shape-inside:url(#rect5-0-1-3-7);display:inline;fill:#646464;fill-opacity:1;stroke:none;stroke-width:3.77953;stroke-dasharray:none;stroke-opacity:1;paint-order:markers stroke fill"
       x="-358.30511"
       y="0"><tspan
         x="87.355469"
         y="227.68357"
         id="tspan46"><tspan
           style="fill:#4b4b4b"
           id="tspan45">A condition is new model component values,
</tspan></tspan><tspan
         x="87.355469"
         y="254.35027"
         id="tspan48"><tspan
           style="fill:#4b4b4b"
           id="tspan47">e.g. a new drug concentration, or state variable value</tspan></tspan></text>
    <text
       xml:space="preserve"
       transform="matrix(0.26458333,0,0,0.26458333,-104.72022,147.69685)"
       id="text6-1-7-3-0"
       style="font-style:normal;font-variant:normal;font-weight:normal;font-stretch:normal;font-size:21.3333px;line-height:1;font-family:'Segoe Print';-inkscape-font-specification:'Segoe Print';text-align:start;letter-spacing:0.5px;writing-mode:lr-tb;direction:ltr;white-space:pre;shape-inside:url(#rect6-6-2-6-8);display:inline;fill:#646464;fill-opacity:1;stroke:none;stroke-width:3.77953;stroke-dasharray:none;stroke-opacity:1;paint-order:markers stroke fill"
       x="-347.77551"
       y="0"><tspan
         x="395.79297"
         y="256.12845"
         id="tspan49">* In implementation, a tool actually simulates the pre-equilibration </tspan><tspan
         x="395.79297"
         y="277.46177"
         id="tspan52">condition from time = t<tspan
   style="font-size:65%;baseline-shift:sub"
   id="tspan50">0</tspan>. After pre-equilibration, time is reset to t<tspan
   style="font-size:65%;baseline-shift:sub"
   id="tspan51">0</tspan> </tspan><tspan
         x="395.79297"
         y="298.79508"
         id="tspan53">to simulate the simulation condition(s), with no further resets.</tspan></text>
  </g>
</svg>
